<svg xmlns="http://www.w3.org/2000/svg" xmlns:xlink="http://www.w3.org/1999/xlink" width="761" height="549" viewBox="0 0 761 549"><defs><style>.a{fill:#fff;}.b{fill:#e9e6da;}.c{fill:url(#a);}.d{fill:url(#b);}.e{fill:#003082;}.f{fill:#ff0045;}.g{fill:#0079d3;}.h{fill:url(#c);}.i{fill:url(#d);}.j{fill:#ffc917;}.k{fill:#002159;}.l{fill:#ff8200;}.m{fill:#00c690;}.n{fill:#00896f;}</style><linearGradient id="a" x1="184.657" y1="243.4" x2="184.657" y2="133.367" gradientUnits="userSpaceOnUse"><stop offset="0" stop-color="#e9e6da"/><stop offset="1" stop-color="#fff"/></linearGradient><linearGradient id="b" x1="-954.824" y1="-713.883" x2="-954.824" y2="-796.689" gradientTransform="translate(1181.066 995.04)" xlink:href="#a"/><linearGradient id="c" x1="146.888" y1="472.858" x2="146.888" y2="959.594" gradientTransform="matrix(-1, 0, 0, 1, 535.243, 0)" gradientUnits="userSpaceOnUse"><stop offset="0" stop-color="#0079d3"/><stop offset="0.33" stop-color="#0077d0"/><stop offset="0.527" stop-color="#006fc8"/><stop offset="0.688" stop-color="#0062ba"/><stop offset="0.831" stop-color="#0050a6"/><stop offset="0.959" stop-color="#00398c"/><stop offset="1" stop-color="#003082"/></linearGradient><linearGradient id="d" x1="71.937" y1="473.886" x2="71.937" y2="955.329" xlink:href="#c"/></defs><title>factuur</title><polygon class="a" points="101.668 133.367 101.668 320.534 127.118 345.984 267.645 345.984 267.645 133.367 101.668 133.367"/><polyline class="b" points="101.668 320.534 127.135 320.55 127.135 346"/><rect class="c" x="101.668" y="133.367" width="165.977" height="110.033"/><rect class="d" x="120.013" y="198.352" width="212.459" height="82.805" transform="translate(465.997 13.512) rotate(90)"/><rect class="e" x="117.849" y="149.733" width="76.199" height="7.374" rx="3.687"/><rect class="e" x="117.849" y="207.497" width="126.589" height="3.687" rx="1.844"/><rect class="e" x="117.849" y="221.631" width="126.589" height="3.687" rx="1.844"/><rect class="e" x="117.849" y="235.764" width="126.589" height="3.687" rx="1.844"/><rect class="e" x="117.849" y="249.898" width="126.589" height="3.687" rx="1.844"/><rect class="e" x="117.849" y="264.032" width="58.378" height="3.687" rx="1.844"/><path class="a" d="M364.265,547.344l-4.925,35.237,3.29,6.182a11.971,11.971,0,0,1,1.66,9.526l-5.246,19.455a2.477,2.477,0,0,1-3.209,1.694h0a2.478,2.478,0,0,1-1.662-2.321l-.092-12.265a2.423,2.423,0,0,0-1.915-2.315h0a2.425,2.425,0,0,0-2.92,2.107l-.813,7.421,1.18,9.9,4.5,7.168a4.025,4.025,0,0,1-1.01,5.37h0a4.025,4.025,0,0,1-4.5.2l-5.273-3.224c-3.038-1.858-5.585-4-6.758-7.365l-2.555-9.722a15.412,15.412,0,0,1-.654-7.6,138.952,138.952,0,0,1,7.746-29.728l1-32.91Z"/><circle class="e" cx="373.451" cy="322.247" r="23.582"/><circle class="e" cx="356.065" cy="467.655" r="17.686"/><polygon class="e" points="338.388 467.655 338.095 577.065 363.007 577.886 373.857 468.582 338.388 467.655"/><polygon class="e" points="342.455 417.784 350.028 319.553 397.254 323.373 381.076 423.194 373.369 470.738 338.957 463.155 342.455 417.784"/><path class="f" d="M431.153,479.255c15.156.1,32.892-10.256,36.409-25,7.321-30.68,14.482-80.536,17.206-97.562,3.465-21.654,23.407-67.164-46.151-65.918-51.5.923-89.028-.21-89.811,38.132-.5,24.585,12.042,74.257,26.324,128.906,3.425,13.108,16.767,21.171,30.315,21.264Z"/><path class="g" d="M373.476,454.721l93.114,1.5s40.766,33.24,22.259,72.877c-25.6,54.835-124.99,28.1-127.741-3.512C359.776,510.279,373.476,454.721,373.476,454.721Z"/><path class="h" d="M434.6,532.113,402.492,764.92V959.594H375.4S339.273,803.052,342.284,741.84s4.353-192.7,24.083-251.371C385.433,433.772,434.6,532.113,434.6,532.113Z"/><path class="i" d="M419.851,543.845,459.44,955.329h24.836S497.823,763.916,504.847,671.6,500.833,499,482.77,477.925c-12.156-14.182-37.265,12.087-52.387,30.783A48.478,48.478,0,0,0,419.851,543.845Z"/><path class="a" d="M365.891,206.63c-.043,11.25.229,24.564-8.113,34.883a2.8,2.8,0,0,0,1.475,4.481l6.668,1.7,9.43,19.925a12.756,12.756,0,0,0,15.082,4.763l7.473-1.694,1.3,23.408s29.813,14.31,43.305-.192c0,0-10.382-34.076-5.474-41.589,2.659-4.071,9.081-14.639,10.79-19.091,13.28-34.583-9.423-66.607-46.2-63.08-5.843.56-12.9,3.579-17.872,6.835C374.3,183.16,365.933,196.008,365.891,206.63Z"/><circle class="j" cx="456.003" cy="180.911" r="21.403"/><path class="e" d="M375.434,211.037a8.259,8.259,0,0,1,5.4-1.23,9.335,9.335,0,0,1,4.914,2.279,13.8,13.8,0,0,1,1.679,1.958c.408.767-.543,1.758-1.249,1.438l-2.064-.821a18.524,18.524,0,0,0-3.741-1,11.732,11.732,0,0,0-3.723.167C372.859,214.9,373.485,211.74,375.434,211.037Z"/><ellipse class="e" cx="378.87" cy="223.751" rx="3.364" ry="4.529"/><path class="e" d="M382.151,251.018c-2.3,3.028-5.088,5.5-11.3,7.058l-1.453-3.528a34.386,34.386,0,0,0,11.388-4.964A1,1,0,0,1,382.151,251.018Z"/><path class="j" d="M412.013,223.9s-28.236-13.2-42.586-30.127a2.959,2.959,0,0,1-.454-3.121c3.072-6.867,7.223-11.318,13.378-15.347,5.043-3.3,13.23-5.678,19.153-6.246,37.289-3.575,60.305,28.89,46.842,63.951-.984,2.564-8.451,20.849-10.943,25.07C431.8,256.3,419.866,241.65,412.013,223.9Z"/><path class="a" d="M406.8,227.083s1.519-10.227,11.209-10.227c8.292,0,10.547,16.572-6.223,24.277"/><path class="a" d="M394.031,332.884,387.3,293.21c21.643-4.765,57.107-2.448,59.769-2.335l-45.49,44.463A4.479,4.479,0,0,1,394.031,332.884Z"/><path class="e" d="M440.393,290.113s-39.532,106.138-13.051,195.23,73.375,46.445,73.375,46.445L483.893,470.4A105.8,105.8,0,0,1,478,419.51l13.184-101.462s1.544-18.2-23.581-24.063C447.069,289.2,440.393,290.113,440.393,290.113Z"/><path class="k" d="M477.314,439.457,467.6,373.811,481.4,393.378,478,419.51A105.775,105.775,0,0,0,477.314,439.457Z"/><path class="e" d="M399.654,291.313s-23.841,38.777-17.581,119.055-.555,121.7-13.967,128.65-15.9,2.973-15.9,2.973l16.606-84.423a41.383,41.383,0,0,0-.435-17.959c-5.656-22.818-20.121-83.412-20-105.819.155-27.847,6.334-33.554,30.409-39.611Z"/><path class="a" d="M488.126,543.182,483.3,576.416l-4.554,5.424a11.97,11.97,0,0,0-4.706,8.447l-1.46,20.1a2.478,2.478,0,0,0,2.472,2.658h0a2.479,2.479,0,0,0,2.334-1.644l4.128-11.549a2.426,2.426,0,0,1,2.572-1.555h0a2.426,2.426,0,0,1,2.062,2.952l-1.678,7.274-4.376,8.955-6.607,5.285a4.025,4.025,0,0,0-.816,5.4h0a4.024,4.024,0,0,0,4.181,1.674l6.041-1.306c3.48-.752,6.592-1.938,8.808-4.726l5.615-8.336a15.4,15.4,0,0,0,3.122-6.958,138.927,138.927,0,0,0,2.485-30.62l8.23-30.209Z"/><circle class="e" cx="467.603" cy="320.404" r="23.582"/><circle class="e" cx="518.403" cy="457.754" r="17.686"/><polygon class="e" points="500.592 457.127 479.41 572.178 507.84 576.416 535.87 461.267 500.592 457.127"/><polygon class="e" points="489.303 310.558 519.783 404.872 535.212 452.611 500.592 457.127 482.834 415.707 445.526 328.683 489.303 310.558"/><path class="l" d="M472.9,502.971l.342,17.369,4.438,4.6a11.96,11.96,0,0,1,3.331,9.068L479.9,551.451a3.609,3.609,0,0,1-4.164,3.336h0a3.609,3.609,0,0,1-2.974-2.839l-2.052-9.992a2.42,2.42,0,0,0-2.3-1.934h0a2.421,2.421,0,0,0-2.493,2.592l.525,7.439,2.81,10.255,5.7,6.243a4.021,4.021,0,0,1-.034,5.459h0a4.023,4.023,0,0,1-4.386,1l-5.758-2.228a15.4,15.4,0,0,1-7.841-6.771l-4.775-8.429a15.394,15.394,0,0,1-2-7.351A153.822,153.822,0,0,1,453,516.959l-2.33-23.07Z"/><path class="m" d="M495.606,384.75,476.992,513.473l-28.2-1.667c-.08-63.394-.236-92.272,4.43-133.141Z"/><path class="n" d="M480.4,382.568c3.964,2.843,9.4,6.812,14.009,10.426L476.992,513.473l-22.316-1.095,15.83-131.744Z"/><path class="m" d="M523.972,261.667c-8.584,47.761-17.825,90.309-28.32,122.931l-42.459-7.019c-.3-43.669,2.76-90.775,9.571-129.229Z"/><circle class="m" cx="474.916" cy="378.677" r="21.655"/><circle class="e" cx="493.734" cy="253.483" r="31.384"/><path class="k" d="M479.887,454.967H618.246l-.33,28.438a72.257,72.257,0,0,1-105.578,38.007l-5.918-3.579c-14.873-9-25.942-19.81-31.3-35.646Z"/><path class="k" d="M446.534,645.6,474.8,483.154c3.327-17.916,31.854-26.878,48.1-18.634,29.343,13.553,36.436,40.454,27.365,77.05l-41.216,152.1,5.807,220.475H468.534L444.443,734.921C439.722,701.825,440.429,678.471,446.534,645.6Z"/><path class="k" d="M581.355,462.62c18.529-3.155,37.108,12.439,36.891,23.768l-.912,426.987-46.265-.253L552.184,693.674,535.5,541.23C535.5,465.933,581.355,462.62,581.355,462.62Z"/><polygon class="k" points="534.124 526.337 527.127 598.68 526.754 628.339 540.187 578.771 534.124 526.337"/><polygon class="k" points="594.974 311.213 611.166 385.669 608.33 455.268 618.868 455.224 623.076 384.621 594.974 311.213"/><path class="a" d="M476.351,470.063l-15.7-207.394c-.011-15,14.013-43.684,47.606-42.849l82.35-.835c12.238-.046,21.768,2.767,29.886,8.117,13.152,8.669,18.243,23.961,16.57,39.624-3.03,28.355-10.241,94.586-12.708,106.206v96.05Z"/><polygon class="g" points="545.439 243.806 545.903 336.479 530.886 398.415 524.728 333.684 536.94 243.806 545.439 243.806"/><path class="m" d="M572.938,219.157l-42.855,166.71s-11.723,139.2,42.855,149.658c44.815,8.582,58.93.343,58.93.343l-5.761-162.807,12.4-120.342S634.962,210.767,572.938,219.157Z"/><path class="m" d="M524.5,219.164l6.718,168.088S542,535.868,483.367,533.7l-18.707-.772L467.6,378.818s-8-99.678-7.3-116.653c1.021-25.021,16.787-41.808,36.816-42.535Z"/><polygon class="g" points="555.568 230.117 545.439 243.806 536.94 243.806 529.161 230.117 555.568 230.117"/><polygon class="b" points="542.107 230.09 565.931 246.639 572.921 219.112 542.107 230.09"/><polygon class="b" points="542.107 230.09 525.384 240.99 524.474 219.208 542.107 230.09"/><circle class="k" cx="522.913" cy="418.354" r="5.85"/><path class="l" d="M520.912,211.135a29.691,29.691,0,0,1,3.394,8.217l17.817,10.835,30.822-11.027s-9.261-43.077-4-51.258c4.748-9.6,9.607-19.215,8.406-34.027-1.941-23.946-19.481-36.9-37.829-36.962-21.016-.066-39.207,12.63-41.832,31.758-1.868,13.611-2.831,23.673-10.942,34.694-6.138,8.34,6.538,11.342,11.075,11.342,0,0-2.535,18.281.4,25.486S520.912,211.135,520.912,211.135Z"/><ellipse class="e" cx="508.648" cy="149.275" rx="2.931" ry="4.432"/><path class="e" d="M500.611,137.972l-.095,1.336a1.659,1.659,0,0,0,1.8,1.771,86.3,86.3,0,0,1,13.781-.251.972.972,0,0,0,.57-1.813c-2.406-1.381-6.785-2.832-14.44-2.588A1.67,1.67,0,0,0,500.611,137.972Z"/><path class="e" d="M541.968,151.107,536,148.474c2.184-6.734,4.685-9.411,8.739-12.162a23.958,23.958,0,0,0,2.827-2.237,15.057,15.057,0,0,0,3.024-3.628c.06-.1.124-.2.181-.3.115-.205.221-.414.327-.624.092-.183.182-.365.264-.548.119-.263.229-.529.334-.8l.012-.035a14.966,14.966,0,0,0-12.879-20.316c-4.6-.606-19.884,3.331-28.894-2.471,7.817-6.185,18.283-9.729,29.546-9.693,18.82.059,36.812,13.351,38.8,37.913a54.894,54.894,0,0,1,.079,8.019c-.11,1.673-.3,3.277-.553,4.825-1.4,8.511-4.8,15.288-8.149,22.059h0c-1.634,2.539-1.777,8.454-1.183,15.467-4.13-3.166-17.649-13.472-17.649-13.472C544.4,157.561,545.843,159.574,541.968,151.107Z"/><path class="l" d="M540.591,153.176s.5-9.428,10.917-11.412,13.7,19.96-4.658,28.4"/><path class="e" d="M497.126,182.7c2.917-.067,8.774-.421,12.915-2.121.538-.221.913.529.45.9-2.447,1.976-6.737,4.277-13.4,4.3Z"/><path class="b" d="M497.383,173.166c2.731-.263,8.882-.663,15.334,5.47,0,0-3.181,2.47-14.513,3.507a2.306,2.306,0,0,1-2.172-1c-.786-1.226-1.564-3.458-.253-6.741A1.948,1.948,0,0,1,497.383,173.166Z"/><circle class="m" cx="608.556" cy="258.8" r="31.384"/><path class="n" d="M615.527,387.527l-15.7-71.234,32.939-9.673-5.579,63.17L625.74,519.527s-3.728,27.7-25.532,26.553Z"/><path class="l" d="M617.976,510.4l-3.041,17.1-5.1,3.85a11.961,11.961,0,0,0-4.7,8.439L603.518,557.2a3.609,3.609,0,0,0,3.594,3.943h0a3.609,3.609,0,0,0,3.38-2.342l3.582-9.551a2.422,2.422,0,0,1,2.569-1.553h0a2.422,2.422,0,0,1,2.06,2.948l-1.677,7.268-4.372,9.692-6.6,5.28a4.022,4.022,0,0,0-.815,5.4h0a4.02,4.02,0,0,0,4.177,1.672l6.034-1.3a15.393,15.393,0,0,0,8.8-5.468l6.028-7.583a15.391,15.391,0,0,0,3.119-6.951,153.887,153.887,0,0,0,2.065-31.334l5.892-22.426Z"/><path class="m" d="M637.745,246.49c14.268,36.816,23.706,94.3,30.542,138.4l-43.114,1.331-48-123.774Z"/><path class="m" d="M668.327,388.675c-4.075,40.041-14.3,78.005-27.181,131.594l-25.767-7.021,9.794-127.026Z"/><circle class="m" cx="646.739" cy="387.052" r="21.655"/></svg>