<?xml version="1.0" encoding="UTF-8"?>
<svg width="12px" height="12px" viewBox="0 0 12 12" version="1.1" xmlns="http://www.w3.org/2000/svg" xmlns:xlink="http://www.w3.org/1999/xlink">
    <!-- Generator: Sketch 55.2 (78181) - https://sketchapp.com -->
    <title>x</title>
    <desc>Created with Sketch.</desc>
    <g id="Design-sprint-" stroke="none" stroke-width="1" fill="none" fill-rule="evenodd">
        <g id="/abonnementen/keuzehulp/overstappen-vergelijk1" transform="translate(-188.000000, -653.000000)" fill="#EC0045">
            <path d="M195.424621,659.010408 L199.313708,662.899495 C199.704233,663.290019 199.704233,663.923184 199.313708,664.313708 C198.923184,664.704233 198.290019,664.704233 197.899495,664.313708 L194.010408,660.424621 L190.12132,664.313708 C189.730796,664.704233 189.097631,664.704233 188.707107,664.313708 C188.316582,663.923184 188.316582,663.290019 188.707107,662.899495 L192.596194,659.010408 L188.707107,655.12132 C188.316582,654.730796 188.316582,654.097631 188.707107,653.707107 C189.097631,653.316582 189.730796,653.316582 190.12132,653.707107 L194.010408,657.596194 L197.899495,653.707107 C198.290019,653.316582 198.923184,653.316582 199.313708,653.707107 C199.704233,654.097631 199.704233,654.730796 199.313708,655.12132 L195.424621,659.010408 Z" id="x"></path>
        </g>
    </g>
</svg>